Coordinates
version=1
nRows=9
nColumns=24
inDegrees=yes

Units are S.I. units (second, meters, Newtons, ...)
Angles are in degrees.

endheader
time	pelvis_tilt	pelvis_list	pelvis_rotation	pelvis_tx	pelvis_ty	pelvis_tz	hip_flexion_r	hip_adduction_r	hip_rotation_r	knee_angle_r	ankle_angle_r	subtalar_angle_r	mtp_angle_r	hip_flexion_l	hip_adduction_l	hip_rotation_l	knee_angle_l	ankle_angle_l	subtalar_angle_l	mtp_angle_l	lumbar_extension	lumbar_bending	lumbar_rotation
      0.77500000	     -2.39061351	     -3.41691705	      7.53484684	     -0.44189903	      1.03008207	      0.32609856	     13.45864252	      9.32590532	     -4.38208798	    -14.36114090	      1.94922272	    -11.51253690	      5.43749651	     20.01982206	     -7.26822980	     -3.41988760	    -67.64871901	     -1.57761985	     -0.01666277	      3.02607598	     -1.31699185	      0.79748509	     -2.59330642
      0.77916667	     -2.42294083	     -3.31572209	      7.50977418	     -0.43689656	      1.03082202	      0.32622464	     13.04999503	      9.26534469	     -4.37405356	    -14.13502147	      2.16280131	    -11.25223700	      4.86685355	     20.54716686	     -7.14771517	     -3.39198781	    -67.28948153	     -0.94605934	     -0.45434071	     -0.13064257	     -1.33997688	      0.66113502	     -2.40497821
      0.78333333	     -2.45308379	     -3.21051114	      7.49895142	     -0.43189373	      1.03156297	      0.32635726	     12.62344171	      9.20730417	     -4.33742399	    -13.86586252	      2.25539432	    -11.21409477	      4.86771211	     21.05223396	     -7.01902833	     -3.34939391	    -66.84952260	     -0.37807049	     -0.84713959	     -0.12578085	     -1.35585638	      0.52565415	     -2.33613532
      0.78750000	     -2.46073467	     -3.09254890	      7.46945885	     -0.42691823	      1.03233806	      0.32649858	     12.17110386	      9.13976867	     -4.28101604	    -13.59872930	      2.37930227	    -11.09988212	      4.86622442	     21.50588178	     -6.87696977	     -3.32684910	    -66.33019575	      0.08862296	     -1.29569760	     -0.14009554	     -1.41545633	      0.37318032	     -2.17484871
      0.79166667	     -2.49108242	     -2.98572371	      7.44194497	     -0.42194723	      1.03303210	      0.32663277	     11.74822197	      9.07797651	     -4.24811582	    -13.33384059	      2.47716711	    -11.01501069	      4.86580460	     21.97215524	     -6.74310697	     -3.30249130	    -65.76271439	      0.60407367	     -1.64589553	     -0.14255173	     -1.43088008	      0.23721530	     -2.11437039
      0.79583333	     -2.51179338	     -2.84825111	      7.39447526	     -0.41700616	      1.03374854	      0.32677528	     11.32013597	      8.98521250	     -4.19139218	    -13.09399707	      2.63231445	    -10.85499995	      4.86090443	     22.39152387	     -6.56950454	     -3.29117301	    -65.10385824	      1.00082295	     -2.05224795	     -0.17069716	     -1.49156207	      0.06931928	     -1.95753322
      0.80000000	     -2.51824497	     -2.71391059	      7.34143178	     -0.41207155	      1.03446199	      0.32690613	     10.87697953	      8.89591003	     -4.14121460	    -12.84931875	      2.75596942	    -10.72403471	      4.85497998	     22.77425255	     -6.40167560	     -3.28690282	    -64.38433608	      1.43237277	     -2.38887409	     -0.19392737	     -1.55366841	     -0.08497255	     -1.85124252
      0.80416667	     -2.55618825	     -2.59218225	      7.28176738	     -0.40713033	      1.03508292	      0.32706859	     10.46823974	      8.81926629	     -4.08667469	    -12.59916938	      2.87212653	    -10.61797544	      4.85038637	     23.17625652	     -6.24938664	     -3.29414948	    -63.61477895	      1.84642764	     -2.69963553	     -0.20945020	     -1.56572757	     -0.25935634	     -1.77077482
      0.80833333	     -2.53974494	     -2.44712212	      7.20827692	     -0.40222272	      1.03578776	      0.32720953	     10.00532203	      8.72169910	     -4.01673003	    -12.36731492	      3.04773408	    -10.43051914	      4.83253105	     23.48254771	     -6.06870554	     -3.30265572	    -62.75299159	      2.14119976	     -3.04405209	     -0.26475744	     -1.66245083	     -0.42000688	     -1.56973339
